<?xml version="1.0" encoding="UTF-8" standalone="no"?>
<!-- Created with Inkscape (http://www.inkscape.org/) -->

<svg
   xmlns:dc="http://purl.org/dc/elements/1.1/"
   xmlns:cc="http://creativecommons.org/ns#"
   xmlns:rdf="http://www.w3.org/1999/02/22-rdf-syntax-ns#"
   xmlns:svg="http://www.w3.org/2000/svg"
   xmlns="http://www.w3.org/2000/svg"
   xmlns:sodipodi="http://sodipodi.sourceforge.net/DTD/sodipodi-0.dtd"
   xmlns:inkscape="http://www.inkscape.org/namespaces/inkscape"
   width="744.09448819"
   height="1052.3622047"
   id="svg2"
   version="1.1"
   inkscape:version="0.48.4 r9939"
   sodipodi:docname="allSprites.svg">
  <defs
     id="defs4">
    <clipPath
       clipPathUnits="userSpaceOnUse"
       id="clipPath2992">
      <rect
         style="fill:#000000;stroke:#000000;stroke-width:4;stroke-linecap:round;stroke-miterlimit:4;stroke-opacity:1;stroke-dasharray:none;stroke-dashoffset:0"
         id="rect2994"
         width="668.57123"
         height="165.71429"
         x="-34.285721"
         y="423.79074" />
    </clipPath>
  </defs>
  <sodipodi:namedview
     id="base"
     pagecolor="#ffffff"
     bordercolor="#666666"
     borderopacity="1.0"
     inkscape:pageopacity="0.0"
     inkscape:pageshadow="2"
     inkscape:zoom="5.6"
     inkscape:cx="144.52712"
     inkscape:cy="848.54815"
     inkscape:document-units="px"
     inkscape:current-layer="layer1"
     showgrid="false"
     inkscape:window-width="1920"
     inkscape:window-height="1018"
     inkscape:window-x="-8"
     inkscape:window-y="-8"
     inkscape:window-maximized="1" />
  <metadata
     id="metadata7">
    <rdf:RDF>
      <cc:Work
         rdf:about="">
        <dc:format>image/svg+xml</dc:format>
        <dc:type
           rdf:resource="http://purl.org/dc/dcmitype/StillImage" />
        <dc:title></dc:title>
      </cc:Work>
    </rdf:RDF>
  </metadata>
  <g
     inkscape:label="Layer 1"
     inkscape:groupmode="layer"
     id="layer1">
    <path
       sodipodi:type="arc"
       style="fill:none;stroke:#000000;stroke-width:4;stroke-linecap:round;stroke-miterlimit:4;stroke-opacity:1;stroke-dasharray:none;stroke-dashoffset:0"
       id="path2985"
       sodipodi:cx="274.28571"
       sodipodi:cy="429.50504"
       sodipodi:rx="242.85715"
       sodipodi:ry="45.714287"
       d="m 517.14285,429.50504 a 242.85715,45.714287 0 1 1 -485.714292,0 242.85715,45.714287 0 1 1 485.714292,0 z"
       clip-path="url(#clipPath2992)"
       transform="matrix(1.0018987,0,0,-0.59091225,-0.52079972,673.85683)"
       inkscape:export-filename="D:\UserMartin\Documents\viroBacterInvaders\Assets\Sprites\surface.png"
       inkscape:export-xdpi="16.51"
       inkscape:export-ydpi="16.51" />
    <path
       sodipodi:type="arc"
       style="fill:#000000;fill-opacity:0.49803922;fill-rule:nonzero;stroke:#000000;stroke-width:4;stroke-linecap:round;stroke-miterlimit:4;stroke-opacity:1;stroke-dasharray:none;stroke-dashoffset:0"
       id="path2996"
       sodipodi:cx="65.659912"
       sodipodi:cy="101.80864"
       sodipodi:rx="29.294424"
       sodipodi:ry="18.182745"
       d="m 94.954336,101.80864 a 29.294424,18.182745 0 1 1 -58.588848,0 29.294424,18.182745 0 1 1 58.588848,0 z"
       inkscape:export-filename="D:\UserMartin\Documents\viroBacterInvaders\Assets\Sprites\bact.png"
       inkscape:export-xdpi="53.490002"
       inkscape:export-ydpi="53.490002"
       transform="translate(57.578695,206.07112)" />
    <path
       style="fill:none;stroke:#000000;stroke-width:1px;stroke-linecap:butt;stroke-linejoin:miter;stroke-opacity:1"
       d="m 99.007266,318.4333 c 0,0 -7.809062,1.9188 -11.071428,1.42857 -3.262366,-0.49023 -4.651717,-3.43736 -7.857143,-3.57143 -3.205426,-0.13407 -7.228722,4.30738 -10,3.57143 -2.771278,-0.73595 -1.139845,-4.26185 -4.285714,-5 -3.14587,-0.73815 -8.700846,5.39463 -11.785715,5 -3.084868,-0.39463 -4.642857,-3.57143 -4.642857,-3.57143"
       id="path2998"
       inkscape:connector-curvature="0"
       sodipodi:nodetypes="czzzzzc"
       inkscape:export-filename="D:\UserMartin\Documents\viroBacterInvaders\Assets\Sprites\bact.png"
       inkscape:export-xdpi="53.490002"
       inkscape:export-ydpi="53.490002" />
    <path
       style="fill:none;stroke:#000000;stroke-width:1px;stroke-linecap:butt;stroke-linejoin:miter;stroke-opacity:1"
       d="m 91.864409,308.4333 c 0,0 -7.269073,-3.62261 -10,-3.57143 -2.730927,0.0512 -2.890725,2.07038 -5.357143,2.14286 -2.466418,0.0725 -5.25517,-2.99508 -8.571428,-2.85714 -3.316258,0.13793 -7.164909,4.94546 -10,4.28571 -2.835091,-0.65975 -1.998996,-4.58971 -4.285714,-5 -2.286718,-0.41029 -6.428572,3.57143 -6.428572,3.57143"
       id="path3000"
       inkscape:connector-curvature="0"
       sodipodi:nodetypes="czzzzzc"
       inkscape:export-filename="D:\UserMartin\Documents\viroBacterInvaders\Assets\Sprites\bact.png"
       inkscape:export-xdpi="53.490002"
       inkscape:export-ydpi="53.490002" />
    <path
       style="fill:none;stroke:#000000;stroke-width:1px;stroke-linecap:butt;stroke-linejoin:miter;stroke-opacity:1"
       d="m 96.150124,297.00473 c 0,0 -5.64083,-3.98692 -8.928572,-4.28572 -2.703561,-0.2457 -5.193743,2.66814 -7.857143,2.14286 -1.915626,-0.3778 -2.715419,-3.25943 -4.642857,-3.57143 -2.861749,-0.46323 -5.3342,3.18775 -8.214286,2.85715 -2.657809,-0.30509 -4.11253,-4.18029 -6.785714,-4.28572 -2.554075,-0.10073 -4.262165,3.16505 -6.785714,3.57143 -1.429856,0.23026 -4.285714,-0.71429 -4.285714,-0.71429"
       id="path3002"
       inkscape:connector-curvature="0"
       sodipodi:nodetypes="cssssssc"
       inkscape:export-filename="D:\UserMartin\Documents\viroBacterInvaders\Assets\Sprites\bact.png"
       inkscape:export-xdpi="53.490002"
       inkscape:export-ydpi="53.490002" />
    <path
       style="fill:#000000;fill-opacity:0.49803922;fill-rule:nonzero;stroke:#000000;stroke-width:2.55558348;stroke-linecap:round;stroke-miterlimit:4;stroke-opacity:1;stroke-dashoffset:0"
       d="m 160.12413,84.545153 c 0.7873,-0.0073 1.6435,0.03009 2.55558,0.139758 l 6.62855,4.592064 0,4.592064 0,4.592064 -6.62855,4.592067 -0.23958,0.41927 c 1.92811,0.25109 2.8351,1.08199 2.8351,3.69362 0,0.43997 -1.30348,1.22916 -1.35546,2.0338 -0.0519,0.80463 1.14759,1.62471 1.04249,2.12648 -0.2102,1.00355 -0.52783,2.01162 -0.95753,2.9097 -0.85941,1.79617 -2.16715,1.87456 -3.96046,1.87456 -1.79331,0 -3.09606,-0.0784 -3.95048,-1.87456 -0.42721,-0.89807 -0.74233,-1.90615 -0.95067,-2.90969 -0.10416,-0.50177 1.09616,-1.32186 1.04475,-2.12649 -0.0514,-0.80464 -1.3546,-1.59383 -1.3546,-2.0338 0,-2.8392 1.08165,-3.559 3.37417,-3.73355 l -0.21962,-0.37934 -6.60858,-4.592067 0,-4.592064 0,-4.592064 6.60858,-4.592064 c 0.63061,-0.08052 1.34901,-0.13247 2.13631,-0.139758 z"
       id="rect3004"
       inkscape:connector-curvature="0"
       sodipodi:nodetypes="sccccccsssssssssccccccs"
       inkscape:export-filename="D:\UserMartin\Documents\viroBacterInvaders\Assets\Sprites\vir.png"
       inkscape:export-xdpi="53.490002"
       inkscape:export-ydpi="53.490002" />
    <path
       style="fill:none;stroke:#000000;stroke-width:2;stroke-linecap:butt;stroke-linejoin:miter;stroke-opacity:1"
       d="m 154.64286,108.79075 -6.25,4.28572 0,13.92857 -3.57143,0.71428"
       id="path3019"
       inkscape:connector-curvature="0"
       inkscape:export-filename="D:\UserMartin\Documents\viroBacterInvaders\Assets\Sprites\vir.png"
       inkscape:export-xdpi="53.490002"
       inkscape:export-ydpi="53.490002" />
    <path
       inkscape:connector-curvature="0"
       id="path3021"
       d="m 165.17857,108.79075 6.25,4.28572 0,13.92857 3.57143,0.71428"
       style="fill:none;stroke:#000000;stroke-width:2;stroke-linecap:butt;stroke-linejoin:miter;stroke-opacity:1"
       inkscape:export-filename="D:\UserMartin\Documents\viroBacterInvaders\Assets\Sprites\vir.png"
       inkscape:export-xdpi="53.490002"
       inkscape:export-ydpi="53.490002" />
    <path
       style="fill:#000000;fill-opacity:0.49803922;fill-rule:nonzero;stroke:#000000;stroke-width:2;stroke-linecap:round;stroke-miterlimit:4;stroke-opacity:1;stroke-dashoffset:0"
       d="m 304.28572,138.79076 c 0,6.90355 -0.67957,15.15355 -1.77828,19.67767 -1.09871,4.52411 -2.61657,5.32233 -4.29315,5.32233 -1.67658,0 -3.19443,-0.79822 -4.29314,-5.32233 -1.09871,-4.52412 -1.77828,-12.77412 -1.77828,-19.67767 0,-6.90356 0.67957,-15.15356 1.77828,-19.67767 1.09871,-4.52411 2.61657,-5.32233 4.29314,-5.32233 1.67658,0 3.19444,0.79822 4.29315,5.32233 1.09871,4.52411 1.77828,12.77411 1.77828,19.67767 z"
       id="path3023"
       inkscape:connector-curvature="0"
       sodipodi:nodetypes="sssssssss"
       inkscape:export-filename="D:\UserMartin\Documents\viroBacterInvaders\Assets\Sprites\dnaCannon.png"
       inkscape:export-xdpi="53.490002"
       inkscape:export-ydpi="53.490002" />
    <path
       sodipodi:nodetypes="sssssssss"
       inkscape:connector-curvature="0"
       id="path3026"
       d="m 320.28572,138.79076 c 0,6.90355 -0.67957,15.15355 -1.77828,19.67767 -1.09871,4.52411 -2.61657,5.32233 -4.29315,5.32233 -1.67658,0 -3.19443,-0.79822 -4.29314,-5.32233 -1.09871,-4.52412 -1.77828,-12.77412 -1.77828,-19.67767 0,-6.90356 0.67957,-15.15356 1.77828,-19.67767 1.09871,-4.52411 2.61657,-5.32233 4.29314,-5.32233 1.67658,0 3.19444,0.79822 4.29315,5.32233 1.09871,4.52411 1.77828,12.77411 1.77828,19.67767 z"
       style="fill:#000000;fill-opacity:0.49803922;fill-rule:nonzero;stroke:#000000;stroke-width:2;stroke-linecap:round;stroke-miterlimit:4;stroke-opacity:1;stroke-dashoffset:0"
       inkscape:export-filename="D:\UserMartin\Documents\viroBacterInvaders\Assets\Sprites\dnaCannon.png"
       inkscape:export-xdpi="53.490002"
       inkscape:export-ydpi="53.490002" />
    <g
       id="g3060"
       transform="matrix(0.9898279,-0.14226988,0.14226988,0.9898279,-21.58919,29.449688)"
       inkscape:export-filename="D:\UserMartin\Documents\viroBacterInvaders\Assets\Sprites\dna.png"
       inkscape:export-xdpi="53.490002"
       inkscape:export-ydpi="53.490002">
      <path
         sodipodi:nodetypes="csssssssc"
         inkscape:connector-curvature="0"
         id="path3028"
         d="m 196.22213,141.70966 c 0,0 3.46235,3.59387 3.27395,5.80838 -0.21159,2.48707 -4.51446,3.3213 -4.72605,5.80837 -0.1884,2.21451 3.46236,3.59387 3.27396,5.80838 -0.21159,2.48708 -4.51446,3.3213 -4.72605,5.80838 -0.1884,2.21451 3.46235,3.59387 3.27395,5.80838 -0.21159,2.48708 -4.51446,3.3213 -4.72605,5.80838 -0.1884,2.21451 3.46236,3.59386 3.27396,5.80837 -0.21159,2.48708 -4.72605,5.80838 -4.72605,5.80838"
         style="fill:none;stroke:#000000;stroke-width:1px;stroke-linecap:butt;stroke-linejoin:miter;stroke-opacity:1" />
      <path
         style="fill:none;stroke:#000000;stroke-width:1px;stroke-linecap:butt;stroke-linejoin:miter;stroke-opacity:1"
         d="m 199.88896,143.19362 c 0,0 -4.22553,2.65493 -4.57565,4.84969 -0.39322,2.46489 3.58239,4.3102 3.18919,6.77508 -0.35012,2.19476 -4.22556,2.65492 -4.57567,4.84968 -0.39321,2.4649 3.5824,4.3102 3.18919,6.77509 -0.35012,2.19476 -4.22554,2.65492 -4.57566,4.84968 -0.39321,2.4649 3.58241,4.3102 3.1892,6.7751 -0.35012,2.19476 -4.22555,2.65491 -4.57567,4.84967 -0.39321,2.4649 3.1892,6.7751 3.1892,6.7751"
         id="path3030"
         inkscape:connector-curvature="0"
         sodipodi:nodetypes="csssssssc" />
      <path
         sodipodi:nodetypes="cc"
         inkscape:connector-curvature="0"
         id="path3032"
         d="m 193.57143,185.21932 -2.21683,-1.61797"
         style="fill:none;stroke:#000000;stroke-width:1px;stroke-linecap:butt;stroke-linejoin:miter;stroke-opacity:1" />
      <path
         sodipodi:nodetypes="cc"
         inkscape:connector-curvature="0"
         id="path3034"
         d="m 194.69067,183.43361 -2.44862,-1.73341"
         style="fill:none;stroke:#000000;stroke-width:1px;stroke-linecap:butt;stroke-linejoin:miter;stroke-opacity:1" />
      <path
         style="fill:none;stroke:#000000;stroke-width:1px;stroke-linecap:butt;stroke-linejoin:miter;stroke-opacity:1"
         d="m 194.96039,172.84495 -2.21683,-1.61797"
         id="path3036"
         inkscape:connector-curvature="0"
         sodipodi:nodetypes="cc" />
      <path
         style="fill:none;stroke:#000000;stroke-width:1px;stroke-linecap:butt;stroke-linejoin:miter;stroke-opacity:1"
         d="m 196.07963,171.05924 -2.44862,-1.73341"
         id="path3038"
         inkscape:connector-curvature="0"
         sodipodi:nodetypes="cc" />
      <path
         sodipodi:nodetypes="cc"
         inkscape:connector-curvature="0"
         id="path3040"
         d="m 196.53875,161.2282 -2.21683,-1.61797"
         style="fill:none;stroke:#000000;stroke-width:1px;stroke-linecap:butt;stroke-linejoin:miter;stroke-opacity:1" />
      <path
         sodipodi:nodetypes="cc"
         inkscape:connector-curvature="0"
         id="path3042"
         d="m 197.65799,159.44249 -2.44862,-1.73341"
         style="fill:none;stroke:#000000;stroke-width:1px;stroke-linecap:butt;stroke-linejoin:miter;stroke-opacity:1" />
      <path
         style="fill:none;stroke:#000000;stroke-width:1px;stroke-linecap:butt;stroke-linejoin:miter;stroke-opacity:1"
         d="m 198.11712,149.23264 -2.21683,-1.61797"
         id="path3044"
         inkscape:connector-curvature="0"
         sodipodi:nodetypes="cc" />
      <path
         style="fill:none;stroke:#000000;stroke-width:1px;stroke-linecap:butt;stroke-linejoin:miter;stroke-opacity:1"
         d="m 199.23636,147.44693 -2.44862,-1.73341"
         id="path3046"
         inkscape:connector-curvature="0"
         sodipodi:nodetypes="cc" />
      <path
         sodipodi:nodetypes="cc"
         inkscape:connector-curvature="0"
         id="path3048"
         d="m 196.19878,155.54609 2.21683,-1.61797"
         style="fill:none;stroke:#000000;stroke-width:1px;stroke-linecap:butt;stroke-linejoin:miter;stroke-opacity:1" />
      <path
         sodipodi:nodetypes="cc"
         inkscape:connector-curvature="0"
         id="path3050"
         d="m 195.07954,153.76038 2.44862,-1.73341"
         style="fill:none;stroke:#000000;stroke-width:1px;stroke-linecap:butt;stroke-linejoin:miter;stroke-opacity:1" />
      <path
         style="fill:none;stroke:#000000;stroke-width:1px;stroke-linecap:butt;stroke-linejoin:miter;stroke-opacity:1"
         d="m 194.74669,167.03658 2.21683,-1.61797"
         id="path3052"
         inkscape:connector-curvature="0"
         sodipodi:nodetypes="cc" />
      <path
         style="fill:none;stroke:#000000;stroke-width:1px;stroke-linecap:butt;stroke-linejoin:miter;stroke-opacity:1"
         d="m 193.62745,165.25087 2.44862,-1.73341"
         id="path3054"
         inkscape:connector-curvature="0"
         sodipodi:nodetypes="cc" />
      <path
         sodipodi:nodetypes="cc"
         inkscape:connector-curvature="0"
         id="path3056"
         d="m 193.2946,178.90587 2.21683,-1.61797"
         style="fill:none;stroke:#000000;stroke-width:1px;stroke-linecap:butt;stroke-linejoin:miter;stroke-opacity:1" />
      <path
         sodipodi:nodetypes="cc"
         inkscape:connector-curvature="0"
         id="path3058"
         d="m 192.17536,177.12016 2.44862,-1.73341"
         style="fill:none;stroke:#000000;stroke-width:1px;stroke-linecap:butt;stroke-linejoin:miter;stroke-opacity:1" />
    </g>
    <rect
       style="fill:none;fill-opacity:0.49803922000000000;fill-rule:nonzero;stroke:#000000;stroke-width:2;stroke-linecap:round;stroke-miterlimit:4;stroke-opacity:1;stroke-dasharray:none;stroke-dashoffset:0"
       id="rect3112"
       width="193.57143"
       height="14.642858"
       x="231.96428"
       y="183.61218"
       inkscape:export-filename="D:\UserMartin\Documents\viroBacterInvaders\Assets\Sprites\meterFrame.png"
       inkscape:export-xdpi="53.490002"
       inkscape:export-ydpi="53.490002" />
    <rect
       y="206.46933"
       x="231.96428"
       height="14.642858"
       width="193.57143"
       id="rect3114"
       style="fill:#fff000;fill-opacity:1;fill-rule:nonzero"
       inkscape:export-filename="D:\UserMartin\Documents\viroBacterInvaders\Assets\Sprites\energy.png"
       inkscape:export-xdpi="53.490002"
       inkscape:export-ydpi="53.490002" />
    <rect
       style="fill:#e63d52;fill-opacity:1;fill-rule:nonzero"
       id="rect3884"
       width="193.57143"
       height="14.642858"
       x="231.96428"
       y="232.54076"
       inkscape:export-filename="D:\UserMartin\Documents\viroBacterInvaders\Assets\Sprites\immune.png"
       inkscape:export-xdpi="53.490002"
       inkscape:export-ydpi="53.490002" />
    <rect
       style="fill:#e63d52;fill-opacity:1;fill-rule:nonzero"
       id="rect3886"
       width="69.700523"
       height="84.852814"
       x="473.76154"
       y="89.686806"
       inkscape:export-filename="D:\UserMartin\Documents\viroBacterInvaders\Assets\Sprites\energyUp.png"
       inkscape:export-xdpi="53.490002"
       inkscape:export-ydpi="53.490002" />
    <rect
       style="fill:#e63d52;fill-opacity:1;fill-rule:nonzero"
       id="rect3888"
       width="70.710678"
       height="86.873116"
       x="563.6651"
       y="89.686806"
       inkscape:export-filename="D:\UserMartin\Documents\viroBacterInvaders\Assets\Sprites\immuneUp.png"
       inkscape:export-xdpi="53.490002"
       inkscape:export-ydpi="53.490002" />
    <text
       xml:space="preserve"
       style="font-size:32px;font-style:normal;font-variant:normal;font-weight:bold;font-stretch:normal;line-height:125%;letter-spacing:0px;word-spacing:0px;fill:#000000;fill-opacity:1;stroke:none;font-family:Monospace;-inkscape-font-specification:Monospace Bold"
       x="479.82245"
       y="113.93047"
       id="text3890"
       sodipodi:linespacing="125%"
       inkscape:export-filename="D:\UserMartin\Documents\viroBacterInvaders\Assets\Sprites\energyUp.png"
       inkscape:export-xdpi="53.490002"
       inkscape:export-ydpi="53.490002"><tspan
         sodipodi:role="line"
         id="tspan3892"
         x="479.82245"
         y="113.93047"
         style="font-size:20px">Meta</tspan><tspan
         sodipodi:role="line"
         x="479.82245"
         y="138.93047"
         id="tspan3894"
         style="font-size:20px">bol</tspan><tspan
         sodipodi:role="line"
         x="479.82245"
         y="163.93047"
         id="tspan3896"
         style="font-size:20px">ise</tspan></text>
    <text
       sodipodi:linespacing="125%"
       id="text3898"
       y="113.93047"
       x="570.73621"
       style="font-size:32px;font-style:normal;font-variant:normal;font-weight:bold;font-stretch:normal;line-height:125%;letter-spacing:0px;word-spacing:0px;fill:#000000;fill-opacity:1;stroke:none;font-family:Monospace;-inkscape-font-specification:Monospace Bold"
       xml:space="preserve"
       inkscape:export-filename="D:\UserMartin\Documents\viroBacterInvaders\Assets\Sprites\immuneUp.png"
       inkscape:export-xdpi="53.490002"
       inkscape:export-ydpi="53.490002"><tspan
         style="font-size:20px"
         id="tspan3904"
         y="113.93047"
         x="570.73621"
         sodipodi:role="line">Vacc</tspan><tspan
         style="font-size:20px"
         y="138.93048"
         x="570.73621"
         sodipodi:role="line"
         id="tspan3911">ina</tspan><tspan
         style="font-size:20px"
         y="163.93048"
         x="570.73621"
         sodipodi:role="line"
         id="tspan3913">te</tspan></text>
    <path
       sodipodi:type="arc"
       style="fill:#e63d52;fill-opacity:1;fill-rule:nonzero"
       id="path3915"
       sodipodi:cx="537.90625"
       sodipodi:cy="266.4635"
       sodipodi:rx="30.809652"
       sodipodi:ry="33.335033"
       d="m 568.7159,266.4635 a 30.809652,33.335033 0 1 1 -61.6193,0 30.809652,33.335033 0 1 1 61.6193,0 z"
       transform="matrix(1,0,0,0.33333332,0,199.86569)"
       inkscape:export-filename="D:\UserMartin\Documents\viroBacterInvaders\Assets\Sprites\surfDef.png"
       inkscape:export-xdpi="53.490002"
       inkscape:export-ydpi="53.490002" />
    <text
       xml:space="preserve"
       style="font-size:20px;font-style:normal;font-variant:normal;font-weight:bold;font-stretch:normal;line-height:125%;letter-spacing:0px;word-spacing:0px;fill:#000000;fill-opacity:1;stroke:none;font-family:Monospace;-inkscape-font-specification:Monospace Bold"
       x="468.71078"
       y="341.71988"
       id="text3917"
       sodipodi:linespacing="125%"><tspan
         sodipodi:role="line"
         id="tspan3919"
         x="468.71078"
         y="341.71988">Surface Defense</tspan></text>
    <path
       sodipodi:type="arc"
       style="fill:#0000ff;fill-opacity:1;fill-rule:nonzero;stroke:#e63d52;stroke-opacity:1"
       id="path3027"
       sodipodi:cx="48.57143"
       sodipodi:cy="165.21931"
       sodipodi:rx="6.4285712"
       sodipodi:ry="7.8571429"
       d="m 55.000001,165.21931 a 6.4285712,7.8571429 0 1 1 -12.857142,0 6.4285712,7.8571429 0 1 1 12.857142,0 z"
       inkscape:export-filename="D:\UserMartin\Documents\Game Projects\viroBacterInvaders\Assets\Sprites\surfDef.png"
       inkscape:export-xdpi="53.490002"
       inkscape:export-ydpi="53.490002"
       transform="matrix(1.4161414,0,0,1.4161414,-17.329319,-60.44664)" />
    <path
       sodipodi:type="arc"
       style="fill:#0000ff;fill-opacity:1;fill-rule:nonzero;stroke:#e63d52;stroke-opacity:1"
       id="path3029"
       sodipodi:cx="49.107143"
       sodipodi:cy="153.96931"
       sodipodi:rx="3.75"
       sodipodi:ry="4.6428571"
       d="m 52.857143,153.96931 a 3.75,4.6428571 0 1 1 -7.5,0 3.75,4.6428571 0 1 1 7.5,0 z"
       inkscape:export-filename="D:\UserMartin\Documents\Game Projects\viroBacterInvaders\Assets\Sprites\surfDef.png"
       inkscape:export-xdpi="53.490002"
       inkscape:export-ydpi="53.490002"
       transform="matrix(1.4161414,0,0,1.4161414,-17.329319,-60.44664)" />
    <path
       sodipodi:type="arc"
       style="fill:#0000ff;fill-opacity:1;fill-rule:nonzero;stroke:#e63d52;stroke-opacity:1"
       id="path3031"
       sodipodi:cx="49.285713"
       sodipodi:cy="148.79076"
       sodipodi:rx="2.8571429"
       sodipodi:ry="3.0357144"
       d="m 52.142856,148.79076 a 2.8571429,3.0357144 0 1 1 -5.714286,0 2.8571429,3.0357144 0 1 1 5.714286,0 z"
       inkscape:export-filename="D:\UserMartin\Documents\Game Projects\viroBacterInvaders\Assets\Sprites\surfDef.png"
       inkscape:export-xdpi="53.490002"
       inkscape:export-ydpi="53.490002"
       transform="matrix(1.4161414,0,0,1.4161414,-17.329319,-60.44664)" />
  </g>
</svg>
